# xmcd
#
# Track frame offsets:
#	150
#	18147
#	38099
#	48646
#	81179
#	94177
#	151395
#	165178
#	177031
#	193581
#	245641
#	264754
#	287086
#	308254
#
# Disc length: 4454 seconds
#
# Revision: 1
# Processed by: cddbd v1.5.1PL0 Copyright (c) Steve Scherf et al.
# Submitted via: audiograbber 1.83.01
#
DISCID=a111640e
DTITLE=Chicago Overcoat - Nothing Left...But The Blues
DYEAR=2002
DGENRE=Blues
TTITLE0=Mean Old Rider
TTITLE1=That's All Right
TTITLE2=My Babe
TTITLE3=Bad News Is Comin'
TTITLE4=Fast Boogie
TTITLE5=Nothing Left Blues
TTITLE6=Gone Down To Main Street
TTITLE7=How Long Can A Fool Go Wrong
TTITLE8=Juicy Harmonica
TTITLE9=Pity The Fools: Sitting And Thinking
TTITLE10=The Pepe Ahlqvist Blues Band: The Highway Is Like A Woman
TTITLE11=The Pepe Ahlqvist Blues Band: Little By Little
TTITLE12=The Pepe Ahlqvist Blues Band: Laundromat Blues
TTITLE13=The Pepe Ahlqvist Blues Band: Harmonica Man (Guitar Man)
EXTD=
EXTT0=
EXTT1=
EXTT2=
EXTT3=
EXTT4=
EXTT5=
EXTT6=
EXTT7=
EXTT8=
EXTT9=
EXTT10=
EXTT11=
EXTT12=
EXTT13=
PLAYORDER=
